<?xml version="1.0" standalone="no"?>
<!DOCTYPE svg PUBLIC "-//W3C//DTD SVG 20010904//EN"
 "http://www.w3.org/TR/2001/REC-SVG-20010904/DTD/svg10.dtd">
<svg version="1.0" xmlns="http://www.w3.org/2000/svg"
 width="300.000000pt" height="300.000000pt" viewBox="0 0 300.000000 300.000000"
 preserveAspectRatio="xMidYMid meet">
<metadata>
Created by potrace 1.10, written by Peter Selinger 2001-2011
</metadata>
<g transform="translate(0.000000,300.000000) scale(0.100000,-0.100000)"
fill="#000000" stroke="none">
<path d="M1375 2774 c-253 -38 -466 -120 -632 -244 -151 -112 -306 -296 -390
-465 -101 -201 -151 -483 -124 -702 57 -463 323 -834 737 -1026 184 -85 329
-117 534 -117 198 0 372 38 545 119 379 178 651 535 721 949 24 139 15 382
-19 513 -99 380 -331 670 -677 844 -88 44 -228 92 -328 111 -77 15 -311 26
-367 18z m358 -60 c244 -44 472 -165 647 -343 141 -143 238 -300 299 -488 151
-464 17 -972 -344 -1304 -218 -200 -529 -319 -835 -319 -190 0 -355 38 -535
125 -359 172 -589 467 -681 876 -21 92 -24 341 -5 449 54 306 238 605 486 788
113 83 307 171 460 207 146 35 349 39 508 9z"/>
<path d="M1711 2671 c-10 -7 21 -20 105 -46 421 -130 721 -443 825 -857 30
-120 37 -344 15 -463 -48 -256 -140 -429 -353 -664 -48 -52 -54 -63 -33 -56
43 12 112 78 186 174 89 117 143 218 188 351 56 167 69 261 63 430 -9 227 -62
404 -179 594 -150 241 -413 445 -674 521 -92 27 -121 30 -143 16z"/>
<path d="M1442 2648 c-21 -21 -13 -45 42 -114 220 -283 390 -696 486 -1185 48
-245 64 -546 38 -716 -15 -97 -15 -140 0 -155 50 -50 202 155 266 361 48 151
59 245 53 461 -3 162 -8 215 -30 310 -50 225 -133 425 -248 600 -75 114 -243
286 -344 352 -123 81 -233 116 -263 86z m97 -45 c314 -133 565 -453 687 -877
130 -452 79 -876 -141 -1166 -52 -70 -85 -101 -72 -69 42 101 58 275 46 484
-15 244 -51 441 -135 732 -102 359 -282 721 -431 871 -76 76 -75 77 46 25z"/>
<path d="M1244 2625 c-16 -25 -12 -44 144 -618 89 -326 218 -810 288 -1077 69
-267 134 -498 143 -515 40 -70 104 -12 143 130 19 71 22 104 22 305 0 183 -4
251 -22 364 -69 439 -231 899 -412 1174 -98 149 -215 262 -270 262 -11 0 -27
-11 -36 -25z m142 -94 c184 -186 360 -562 474 -1016 66 -262 84 -404 84 -665
1 -243 -7 -295 -62 -405 l-25 -49 -152 584 c-158 603 -415 1553 -434 1603 -6
16 -11 33 -11 38 0 19 62 -26 126 -90z"/>
<path d="M1696 2626 c3 -8 40 -42 82 -75 330 -256 539 -676 583 -1168 20 -227
-11 -449 -90 -647 -35 -89 -44 -126 -31 -126 26 0 107 190 138 330 34 148 39
396 12 570 -45 284 -157 570 -307 778 -81 114 -208 245 -288 299 -71 47 -108
62 -99 39z"/>
<path d="M1106 2591 c-87 -91 -117 -406 -71 -758 82 -622 387 -1320 643 -1470
40 -24 44 -24 67 -9 17 11 25 26 25 44 0 16 -41 176 -91 358 -110 401 -266
980 -389 1449 -94 359 -99 372 -126 399 -21 22 -26 20 -58 -13z m52 -32 c10
-66 553 -2089 581 -2161 13 -35 4 -35 -47 0 -178 121 -397 531 -518 971 -83
301 -118 537 -117 781 1 187 14 277 55 383 23 59 40 69 46 26z"/>
<path d="M899 2470 c-39 -41 -72 -91 -108 -162 -84 -170 -121 -347 -121 -572
0 -440 181 -893 466 -1166 184 -176 390 -277 431 -211 11 17 8 26 -20 64 -18
25 -56 78 -85 118 -204 282 -394 814 -458 1282 -25 186 -29 404 -10 535 25
169 4 208 -31 57 -24 -108 -24 -417 1 -590 71 -491 235 -963 445 -1277 38 -57
88 -121 110 -141 68 -61 52 -63 -71 -8 -133 59 -241 141 -350 266 -91 104
-149 194 -214 330 -126 262 -182 527 -171 808 10 252 77 464 197 622 63 83 75
105 58 105 -7 0 -38 -27 -69 -60z"/>
<path d="M695 2392 c-73 -45 -206 -218 -274 -355 -89 -181 -126 -343 -126
-542 2 -377 161 -703 464 -948 166 -135 456 -255 538 -223 13 5 -13 17 -87 40
-192 59 -313 121 -444 227 -295 237 -466 639 -427 1007 19 181 70 342 154 487
49 85 80 126 174 231 88 98 95 116 28 76z"/>
<path d="M737 2355 c-52 -78 -116 -288 -131 -432 -4 -34 -7 -119 -7 -190 0
-411 155 -840 409 -1138 87 -101 207 -201 276 -230 36 -15 37 -15 27 3 -5 10
-46 46 -89 80 -275 212 -483 582 -558 991 -9 47 -18 160 -21 251 -8 240 14
377 92 579 42 109 43 147 2 86z"/>
</g>
</svg>
